<svg version="1.1" id="Ebene_1" xmlns="http://www.w3.org/2000/svg" x="0" y="0" viewBox="0 0 300 300" xml:space="preserve"><style>.st2{fill-rule:evenodd;clip-rule:evenodd;fill:#020203}</style><circle cx="151.1" cy="149.5" r="131.8" fill-rule="evenodd" clip-rule="evenodd" fill="#fcc415"/><path d="M151 292.7c-78.7 0-142.7-64-142.7-142.7S72.3 7.3 151 7.3s142.7 64 142.7 142.7-64 142.7-142.7 142.7zm0-273.4C79 19.3 20.4 78 20.4 150S79 280.7 151 280.7 281.7 222 281.7 150 223.1 19.3 151 19.3z" fill="#020203"/><path class="st2" d="M172.5 112.4c-8.7-4-13.6-13.4-12.1-22.8 8.6 4 13.6 13.4 12.1 22.8z"/><path class="st2" d="M122.5 191.9c1.4 4.6 3.6 9 6.6 12.8H174c3-3.8 5.2-8.2 6.6-12.8h-58.1zm94.8-46.2c-1.4 1.3-1.5 3.6-.2 5l.5.5c20.4-17.4 32.7-30.9 26.6-41.5-6.7-9.4-35.1-4.9-69.9 10.7 1.8-3.5 2.6-7.4 2.6-11.3 0-1.4-.1-2.9-.4-4.3-.8-5-3.2-9.8-7-13.6-2.1-2.1-4.5-3.8-7-5l.1-.3 2.7-5.8c.4-.9 0-2-.9-2.5-.9-.4-2 0-2.5.9l-2.9 6.3c-4.8-1.5-10-1.5-14.8 0l-2.9-6.3c-.4-.9-1.5-1.3-2.5-.9-.9.4-1.3 1.5-.9 2.5l2.6 5.6.2.4c-2.6 1.2-4.9 2.9-7 5-5.1 5.1-7.5 11.7-7.4 18.4.1 3.6.9 7.2 2.5 10.5-9-4-59-24.7-69-10.6-9.1 12.8 18.9 35.3 26.4 41.7l.5-.5c1.3-1.4 1.2-3.7-.2-5-3.7-3.5-9.4-9.2-13.5-14.7-5.3-7.3-5.4-11.6-2.9-14 8-7.5 37.5 2.4 46.6 5.9 8.8 3.4 18.3 7.7 28 12.8-46.8 27.1-78.6 59.5-71.1 72.5 4.7 8.1 24.3 7.1 49.4-1.8l-.9-1.5c-.9-1.4-2.5-2.1-4.1-1.6-17.4 5.3-28.3 7.8-32.1 2.2-5.2-9.1 21.4-40.4 62.7-64.2l3.1-1.8c1 .6 2.1 1.2 3.1 1.8 41.3 23.8 67.9 55.1 62.7 64.2-3.8 5.6-14.6 3.1-32.1-2.2-1.6-.5-3.2.2-4.1 1.6l-.9 1.5c25.1 8.9 44.7 9.9 49.4 1.8 7.5-13-24.3-45.4-71.1-72.5 32.9-17.4 62.6-25.1 73.5-19.6 10 5-7.2 22.3-14.9 29.7zm-86.9-33.3c-1.5-9.4 3.5-18.8 12.1-22.8 1.5 9.4-3.5 18.8-12.1 22.8zm42.1 0c-8.7-4-13.6-13.4-12.1-22.8 8.6 4 13.6 13.4 12.1 22.8zm7.6 53.4c-8.6-6.3-18.2-12.6-28.5-18.6-10.3 6-19.9 12.3-28.5 18.6-1.7 4.9-2.5 10.2-2.3 15.4h61.6c.1-5.2-.6-10.5-2.3-15.4zm-41.2 49.7c3.9 4 6.9 7.6 12.7 18.1 5.8-10.4 8.8-14 12.7-18.1h-25.4z"/><path d="M172.5 112.4c-8.7-4-13.6-13.4-12.1-22.8 8.6 4 13.6 13.4 12.1 22.8zm-42.1 0c-1.5-9.4 3.5-18.8 12.1-22.8 1.5 9.4-3.5 18.8-12.1 22.8zm-43.1 36.5s.7-1.8-1-3.4c-7.8-7.3-24.9-24.6-15.1-29.6 10.9-5.5 40.6 2.4 73.5 19.7-16.6 9.6-28 17.6-40 27.3-13.3-9.8-15.7-11.9-17.4-14zm130.2 56.8c-3.8 5.6-14.6 3.1-32.1-2.2-.8-.2-1.6-.2-2.3.1 5.3-7.7 6.5-22 4.6-32.3V171c-.6-4.1-1.5-7.3-2.5-8.7 23.2 18.6 36.1 36.8 32.3 43.4zm-18.3-42.6c-11.7-9.9-23.7-17.8-40.3-27.4 32.9-17.4 62.6-25.1 73.5-19.6 9.8 5-7.4 22.3-15.1 29.6-1.4 1.3-1 1.9-1 3.4-1.8 2.1-3.8 4.2-17.1 14zm-80.9-1.1c-1 1.4-1.9 4.6-2.5 8.7v.3c-1.9 10.4-.7 24.6 4.6 32.3-.7-.3-1.5-.3-2.3-.1-17.4 5.3-28.3 7.8-32.1 2.2-3.8-6.5 9.2-24.7 32.3-43.4z" fill="#fff" fill-rule="evenodd" clip-rule="evenodd"/></svg>